<mxfile host="app.diagrams.net" agent="Mozilla/5.0 (Windows NT 10.0; Win64; x64) AppleWebKit/537.36 (KHTML, like Gecko) Chrome/131.0.0.0 Safari/537.36" version="25.0.3" pages="4">
  <diagram id="SmmHT-76sTtbEDoEjSkX" name="Project-Structure">
    <mxGraphModel dx="1728" dy="915" grid="1" gridSize="10" guides="1" tooltips="1" connect="1" arrows="1" fold="1" page="1" pageScale="1" pageWidth="413" pageHeight="583" math="0" shadow="0">
      <root>
        <mxCell id="0" />
        <mxCell id="1" parent="0" />
        <mxCell id="7oh3VE-BA0yJCBzB7xXL-3" value="" style="rounded=0;whiteSpace=wrap;html=1;strokeColor=#001DBC;strokeWidth=1.2;fillColor=none;dashed=1;" parent="1" vertex="1">
          <mxGeometry x="350" y="970" width="320" height="60" as="geometry" />
        </mxCell>
        <mxCell id="51nqaLBbArFpjwlJXphi-8" style="edgeStyle=orthogonalEdgeStyle;rounded=0;orthogonalLoop=1;jettySize=auto;html=1;endArrow=oval;endFill=0;startArrow=oval;startFill=0;endSize=6;targetPerimeterSpacing=6;sourcePerimeterSpacing=2;startSize=6;fillColor=#0050ef;strokeColor=#663300;" parent="1" edge="1">
          <mxGeometry relative="1" as="geometry">
            <mxPoint x="131" y="110" as="sourcePoint" />
            <Array as="points">
              <mxPoint x="131" y="130" />
              <mxPoint x="131" y="200" />
            </Array>
            <mxPoint x="320" y="200" as="targetPoint" />
          </mxGeometry>
        </mxCell>
        <mxCell id="51nqaLBbArFpjwlJXphi-1" value="" style="aspect=fixed;perimeter=ellipsePerimeter;html=1;align=center;shadow=0;dashed=0;spacingTop=3;image;image=img/lib/active_directory/folder_open.svg;" parent="1" vertex="1">
          <mxGeometry x="282.6" y="40" width="64.4" height="70" as="geometry" />
        </mxCell>
        <mxCell id="_cdkrZVvoebnsra8TFej-13" style="edgeStyle=orthogonalEdgeStyle;rounded=0;orthogonalLoop=1;jettySize=auto;html=1;strokeColor=#663300;align=center;verticalAlign=middle;fontFamily=Helvetica;fontSize=11;fontColor=default;labelBackgroundColor=default;startArrow=oval;startFill=0;startSize=6;endArrow=oval;endFill=0;endSize=6;sourcePerimeterSpacing=2;targetPerimeterSpacing=6;fillColor=#0050ef;" edge="1" parent="1">
          <mxGeometry relative="1" as="geometry">
            <mxPoint x="250" y="920" as="sourcePoint" />
            <mxPoint x="320" y="1046" as="targetPoint" />
            <Array as="points">
              <mxPoint x="250" y="920" />
              <mxPoint x="280" y="920" />
              <mxPoint x="280" y="1046" />
            </Array>
          </mxGeometry>
        </mxCell>
        <mxCell id="51nqaLBbArFpjwlJXphi-4" value="&lt;font style=&quot;font-size: 18px;&quot;&gt;Matrices&lt;/font&gt;" style="aspect=fixed;perimeter=ellipsePerimeter;html=1;align=center;shadow=0;dashed=0;spacingTop=3;image;image=img/lib/active_directory/folder_open.svg;fontSize=21;" parent="1" vertex="1">
          <mxGeometry x="190" y="893" width="50" height="54.35" as="geometry" />
        </mxCell>
        <mxCell id="51nqaLBbArFpjwlJXphi-7" value="&lt;font style=&quot;font-size: 18px;&quot;&gt;project_database.sqlite&lt;/font&gt;" style="image;html=1;image=img/lib/clip_art/computers/Database_128x128.png;fontSize=21;" parent="1" vertex="1">
          <mxGeometry x="327.5" y="170" width="59" height="60" as="geometry" />
        </mxCell>
        <mxCell id="51nqaLBbArFpjwlJXphi-9" style="edgeStyle=orthogonalEdgeStyle;rounded=0;orthogonalLoop=1;jettySize=auto;html=1;endArrow=oval;endFill=0;startArrow=oval;startFill=0;endSize=6;targetPerimeterSpacing=6;sourcePerimeterSpacing=2;startSize=6;fillColor=#0050ef;strokeColor=#663300;" parent="1" edge="1">
          <mxGeometry relative="1" as="geometry">
            <mxPoint x="131" y="110" as="sourcePoint" />
            <mxPoint x="180" y="920" as="targetPoint" />
            <Array as="points">
              <mxPoint x="131" y="920" />
              <mxPoint x="170" y="920" />
            </Array>
          </mxGeometry>
        </mxCell>
        <mxCell id="51nqaLBbArFpjwlJXphi-10" style="edgeStyle=orthogonalEdgeStyle;rounded=0;orthogonalLoop=1;jettySize=auto;html=1;endArrow=oval;endFill=0;startArrow=oval;startFill=0;endSize=6;targetPerimeterSpacing=6;sourcePerimeterSpacing=2;startSize=6;fillColor=#0050ef;strokeColor=#663300;" parent="1" edge="1">
          <mxGeometry relative="1" as="geometry">
            <mxPoint x="131" y="110" as="sourcePoint" />
            <mxPoint x="320" y="780" as="targetPoint" />
            <Array as="points">
              <mxPoint x="131" y="780" />
            </Array>
          </mxGeometry>
        </mxCell>
        <mxCell id="51nqaLBbArFpjwlJXphi-15" value="&lt;font style=&quot;font-size: 12px;&quot;&gt;&lt;b style=&quot;&quot;&gt;O/D matrices :&lt;/b&gt; Matrix 1, Matrix 2, ... , Matrix n&lt;/font&gt;" style="text;html=1;strokeColor=none;fillColor=none;align=left;verticalAlign=middle;whiteSpace=wrap;rounded=0;fontSize=14;" parent="1" vertex="1">
          <mxGeometry x="398" y="935.5" width="262" height="30" as="geometry" />
        </mxCell>
        <mxCell id="51nqaLBbArFpjwlJXphi-34" style="edgeStyle=orthogonalEdgeStyle;rounded=0;orthogonalLoop=1;jettySize=auto;html=1;endArrow=oval;endFill=0;startArrow=oval;startFill=0;endSize=6;targetPerimeterSpacing=6;sourcePerimeterSpacing=2;startSize=6;fillColor=#0050ef;strokeColor=#663300;" parent="1" edge="1">
          <mxGeometry relative="1" as="geometry">
            <mxPoint x="131" y="110" as="sourcePoint" />
            <mxPoint x="320" y="460" as="targetPoint" />
            <Array as="points">
              <mxPoint x="131" y="460" />
            </Array>
          </mxGeometry>
        </mxCell>
        <mxCell id="51nqaLBbArFpjwlJXphi-35" value="AequilibraE Project" style="text;html=1;strokeColor=none;fillColor=none;align=center;verticalAlign=middle;whiteSpace=wrap;rounded=0;fontSize=26;fontStyle=1" parent="1" vertex="1">
          <mxGeometry x="11" y="60" width="280" height="30" as="geometry" />
        </mxCell>
        <mxCell id="51nqaLBbArFpjwlJXphi-72" value="Tables" style="swimlane;fontStyle=1;childLayout=stackLayout;horizontal=1;startSize=30;horizontalStack=0;resizeParent=1;resizeParentMax=0;resizeLast=0;collapsible=1;marginBottom=0;fontSize=11;spacing=1;" parent="1" vertex="1">
          <mxGeometry x="490.5" y="385" width="200" height="150" as="geometry" />
        </mxCell>
        <mxCell id="eMc6hgrokqvifs7f22zR-149" value="Scenarios lists" style="text;strokeColor=none;fillColor=none;align=left;verticalAlign=middle;spacingLeft=4;spacingRight=0;overflow=hidden;points=[[0,0.5],[1,0.5]];portConstraint=eastwest;rotatable=0;fontSize=11;spacing=0;" parent="51nqaLBbArFpjwlJXphi-72" vertex="1">
          <mxGeometry y="30" width="200" height="15" as="geometry" />
        </mxCell>
        <mxCell id="51nqaLBbArFpjwlJXphi-73" value="Population scenario 1" style="text;strokeColor=none;fillColor=none;align=left;verticalAlign=middle;spacingLeft=4;spacingRight=0;overflow=hidden;points=[[0,0.5],[1,0.5]];portConstraint=eastwest;rotatable=0;fontSize=11;spacing=0;" parent="51nqaLBbArFpjwlJXphi-72" vertex="1">
          <mxGeometry y="45" width="200" height="15" as="geometry" />
        </mxCell>
        <mxCell id="51nqaLBbArFpjwlJXphi-74" value="Households scenario 1" style="text;strokeColor=none;fillColor=none;align=left;verticalAlign=middle;spacingLeft=4;spacingRight=0;overflow=hidden;points=[[0,0.5],[1,0.5]];portConstraint=eastwest;rotatable=0;fontSize=11;spacing=0;" parent="51nqaLBbArFpjwlJXphi-72" vertex="1">
          <mxGeometry y="60" width="200" height="15" as="geometry" />
        </mxCell>
        <mxCell id="51nqaLBbArFpjwlJXphi-75" value="Population scenario 2" style="text;strokeColor=none;fillColor=none;align=left;verticalAlign=middle;spacingLeft=4;spacingRight=0;overflow=hidden;points=[[0,0.5],[1,0.5]];portConstraint=eastwest;rotatable=0;fontSize=11;spacing=0;" parent="51nqaLBbArFpjwlJXphi-72" vertex="1">
          <mxGeometry y="75" width="200" height="15" as="geometry" />
        </mxCell>
        <mxCell id="51nqaLBbArFpjwlJXphi-77" value="Households scenario 2" style="text;strokeColor=none;fillColor=none;align=left;verticalAlign=middle;spacingLeft=4;spacingRight=0;overflow=hidden;points=[[0,0.5],[1,0.5]];portConstraint=eastwest;rotatable=0;fontSize=11;spacing=0;" parent="51nqaLBbArFpjwlJXphi-72" vertex="1">
          <mxGeometry y="90" width="200" height="15" as="geometry" />
        </mxCell>
        <mxCell id="qlyStpaNBxaLBWbQgAqg-24" value="zonal data scenario 1" style="text;strokeColor=none;fillColor=none;align=left;verticalAlign=middle;spacingLeft=4;spacingRight=0;overflow=hidden;points=[[0,0.5],[1,0.5]];portConstraint=eastwest;rotatable=0;fontSize=11;spacing=0;" parent="51nqaLBbArFpjwlJXphi-72" vertex="1">
          <mxGeometry y="105" width="200" height="15" as="geometry" />
        </mxCell>
        <mxCell id="qlyStpaNBxaLBWbQgAqg-25" value="zonal data scenario 2" style="text;strokeColor=none;fillColor=none;align=left;verticalAlign=middle;spacingLeft=4;spacingRight=0;overflow=hidden;points=[[0,0.5],[1,0.5]];portConstraint=eastwest;rotatable=0;fontSize=11;spacing=0;" parent="51nqaLBbArFpjwlJXphi-72" vertex="1">
          <mxGeometry y="120" width="200" height="15" as="geometry" />
        </mxCell>
        <mxCell id="51nqaLBbArFpjwlJXphi-78" value="..." style="text;strokeColor=none;fillColor=none;align=left;verticalAlign=middle;spacingLeft=4;spacingRight=0;overflow=hidden;points=[[0,0.5],[1,0.5]];portConstraint=eastwest;rotatable=0;fontSize=11;spacing=0;" parent="51nqaLBbArFpjwlJXphi-72" vertex="1">
          <mxGeometry y="135" width="200" height="15" as="geometry" />
        </mxCell>
        <mxCell id="eMc6hgrokqvifs7f22zR-1" value="&lt;font style=&quot;font-size: 18px;&quot;&gt;parameters.yml&lt;/font&gt;" style="verticalLabelPosition=bottom;html=1;verticalAlign=top;align=center;strokeColor=none;fillColor=#00BEF2;shape=mxgraph.azure.code_file;pointerEvents=1;fontSize=21;" parent="1" vertex="1">
          <mxGeometry x="332" y="320" width="50" height="50" as="geometry" />
        </mxCell>
        <mxCell id="eMc6hgrokqvifs7f22zR-3" style="edgeStyle=orthogonalEdgeStyle;rounded=0;orthogonalLoop=1;jettySize=auto;html=1;endArrow=oval;endFill=0;startArrow=oval;startFill=0;endSize=6;targetPerimeterSpacing=6;sourcePerimeterSpacing=2;startSize=6;fillColor=#0050ef;strokeColor=#663300;" parent="1" edge="1">
          <mxGeometry relative="1" as="geometry">
            <mxPoint x="131" y="110" as="sourcePoint" />
            <Array as="points">
              <mxPoint x="131" y="350" />
            </Array>
            <mxPoint x="320" y="350" as="targetPoint" />
          </mxGeometry>
        </mxCell>
        <mxCell id="eMc6hgrokqvifs7f22zR-5" value="Tables" style="swimlane;fontStyle=1;childLayout=stackLayout;horizontal=1;startSize=30;horizontalStack=0;resizeParent=1;resizeParentMax=0;resizeLast=0;collapsible=1;marginBottom=0;fontSize=11;spacing=1;" parent="1" vertex="1">
          <mxGeometry x="490.5" y="155" width="200" height="165" as="geometry" />
        </mxCell>
        <mxCell id="eMc6hgrokqvifs7f22zR-6" value="links" style="text;strokeColor=none;fillColor=none;align=left;verticalAlign=middle;spacingLeft=4;spacingRight=0;overflow=hidden;points=[[0,0.5],[1,0.5]];portConstraint=eastwest;rotatable=0;fontSize=11;spacing=0;" parent="eMc6hgrokqvifs7f22zR-5" vertex="1">
          <mxGeometry y="30" width="200" height="15" as="geometry" />
        </mxCell>
        <mxCell id="eMc6hgrokqvifs7f22zR-7" value="nodes" style="text;strokeColor=none;fillColor=none;align=left;verticalAlign=middle;spacingLeft=4;spacingRight=0;overflow=hidden;points=[[0,0.5],[1,0.5]];portConstraint=eastwest;rotatable=0;fontSize=11;spacing=0;" parent="eMc6hgrokqvifs7f22zR-5" vertex="1">
          <mxGeometry y="45" width="200" height="15" as="geometry" />
        </mxCell>
        <mxCell id="eMc6hgrokqvifs7f22zR-8" value="modes" style="text;strokeColor=none;fillColor=none;align=left;verticalAlign=middle;spacingLeft=4;spacingRight=0;overflow=hidden;points=[[0,0.5],[1,0.5]];portConstraint=eastwest;rotatable=0;fontSize=11;spacing=0;" parent="eMc6hgrokqvifs7f22zR-5" vertex="1">
          <mxGeometry y="60" width="200" height="15" as="geometry" />
        </mxCell>
        <mxCell id="eMc6hgrokqvifs7f22zR-9" value="link_types" style="text;strokeColor=none;fillColor=none;align=left;verticalAlign=middle;spacingLeft=4;spacingRight=0;overflow=hidden;points=[[0,0.5],[1,0.5]];portConstraint=eastwest;rotatable=0;fontSize=11;spacing=0;" parent="eMc6hgrokqvifs7f22zR-5" vertex="1">
          <mxGeometry y="75" width="200" height="15" as="geometry" />
        </mxCell>
        <mxCell id="eMc6hgrokqvifs7f22zR-10" value="matrices" style="text;strokeColor=none;fillColor=none;align=left;verticalAlign=middle;spacingLeft=4;spacingRight=0;overflow=hidden;points=[[0,0.5],[1,0.5]];portConstraint=eastwest;rotatable=0;fontSize=11;spacing=0;" parent="eMc6hgrokqvifs7f22zR-5" vertex="1">
          <mxGeometry y="90" width="200" height="15" as="geometry" />
        </mxCell>
        <mxCell id="eMc6hgrokqvifs7f22zR-20" value="results" style="text;strokeColor=none;fillColor=none;align=left;verticalAlign=middle;spacingLeft=4;spacingRight=0;overflow=hidden;points=[[0,0.5],[1,0.5]];portConstraint=eastwest;rotatable=0;fontSize=11;spacing=0;" parent="eMc6hgrokqvifs7f22zR-5" vertex="1">
          <mxGeometry y="105" width="200" height="15" as="geometry" />
        </mxCell>
        <mxCell id="eMc6hgrokqvifs7f22zR-19" value="scenarios" style="text;strokeColor=none;fillColor=none;align=left;verticalAlign=middle;spacingLeft=4;spacingRight=0;overflow=hidden;points=[[0,0.5],[1,0.5]];portConstraint=eastwest;rotatable=0;fontSize=11;spacing=0;" parent="eMc6hgrokqvifs7f22zR-5" vertex="1">
          <mxGeometry y="120" width="200" height="15" as="geometry" />
        </mxCell>
        <mxCell id="eMc6hgrokqvifs7f22zR-18" style="text;strokeColor=none;fillColor=none;align=left;verticalAlign=middle;spacingLeft=4;spacingRight=0;overflow=hidden;points=[[0,0.5],[1,0.5]];portConstraint=eastwest;rotatable=0;fontSize=11;spacing=0;" parent="eMc6hgrokqvifs7f22zR-5" vertex="1">
          <mxGeometry y="135" width="200" height="15" as="geometry" />
        </mxCell>
        <mxCell id="eMc6hgrokqvifs7f22zR-12" style="text;strokeColor=none;fillColor=none;align=left;verticalAlign=middle;spacingLeft=4;spacingRight=0;overflow=hidden;points=[[0,0.5],[1,0.5]];portConstraint=eastwest;rotatable=0;fontSize=11;spacing=0;" parent="eMc6hgrokqvifs7f22zR-5" vertex="1">
          <mxGeometry y="150" width="200" height="15" as="geometry" />
        </mxCell>
        <mxCell id="beAV0tQ10ZBVjTicFPJ4-2" value="&lt;font style=&quot;font-size: 12px;&quot;&gt;&lt;b style=&quot;&quot;&gt;Origin vectors :&lt;/b&gt;&amp;nbsp;Vector 1, Vector 2, ... ,&amp;nbsp; n&lt;/font&gt;" style="text;html=1;strokeColor=none;fillColor=none;align=left;verticalAlign=middle;whiteSpace=wrap;rounded=0;fontSize=14;" parent="1" vertex="1">
          <mxGeometry x="398" y="970" width="262" height="30" as="geometry" />
        </mxCell>
        <mxCell id="beAV0tQ10ZBVjTicFPJ4-5" value="&lt;font style=&quot;font-size: 12px;&quot;&gt;&lt;b&gt;Destination vectors :&lt;/b&gt;&amp;nbsp;Vector 1, Vector 2, ... ,&amp;nbsp; n&lt;/font&gt;" style="text;html=1;strokeColor=none;fillColor=none;align=left;verticalAlign=middle;whiteSpace=wrap;rounded=0;fontSize=13;" parent="1" vertex="1">
          <mxGeometry x="398" y="1000" width="262" height="30" as="geometry" />
        </mxCell>
        <mxCell id="7oh3VE-BA0yJCBzB7xXL-2" value="&lt;b&gt;Pandas DataFrame&lt;/b&gt;" style="text;html=1;strokeColor=none;fillColor=none;align=left;verticalAlign=middle;whiteSpace=wrap;rounded=0;fontSize=14;" parent="1" vertex="1">
          <mxGeometry x="679" y="985" width="136" height="30" as="geometry" />
        </mxCell>
        <mxCell id="DhicbHw38zyodVbFEy_m-2" value="&lt;b&gt;&lt;font style=&quot;font-size: 12px;&quot;&gt;Path files&lt;/font&gt;&lt;/b&gt;" style="text;html=1;strokeColor=none;fillColor=none;align=left;verticalAlign=middle;whiteSpace=wrap;rounded=0;fontSize=14;" parent="1" vertex="1">
          <mxGeometry x="398" y="1030" width="262" height="30" as="geometry" />
        </mxCell>
        <mxCell id="unXl9Iu9AfT90pD_fUez-1" value="" style="shape=image;verticalLabelPosition=bottom;labelBackgroundColor=default;verticalAlign=top;imageAspect=0;image=data:image/png,iVBORw0KGgoAAAANSUhEUgAAAOEAAADhCAMAAAAJbSJIAAAAdVBMVEX///8AAAClpaVgYGBqamru7u78/Px0dHSFhYW2trbV1dX29vZubm5TU1P5+fk9PT2/v7/o6Ojv7+9MTEyhoaF7e3uJiYmrq6va2tpmZmY3NzdZWVlHR0fh4eGOjo6ZmZmxsbEoKCgvLy8hISEZGRkQEBA6Ojp7bummAAAD70lEQVR4nO2da1fiMBCGXalQoKJca7ko6O7+/5+4R5tKwsm2maHtOOF9vnlOhzePcmjMJPTuDgAAAAAAAAAAAAAAAAAAAAAAAFDGcJwWg5go0rEjePwVI8ez4Fp6LB2RVoIr6ZF0Rl4KTqXH0SHDL8NcehgdUn7cJNLD6JD1l+Gg/GGbJVQy8zrL8NJsX5a8E9KqGMrItmXJwDbcMG6jJvqZUJLbv1xaDKVk4zFMG2pqosfNV35zX5aMGDFTQkkqbpgxYuI3XBBK5A0TRkz8hg+EkjrDYQhu9Dik1DUsgtL8hiElNYZBc7jEjTaGk9qauddwW1eSujHG8Lk2ZtqOYeZGMwwH5hWe6kouDOcw/ASGvRnuGIYHGH4Cw94MH2FoDQmGDqoNX1QZLmFoDUnC8PqZd2VImXm3ZDjLRo1kK6/hIampSRZew7QuJvcaTupGmM0aDUm4hkFcGFJiXgglOg0nhBJ5wz0jBoY28oZPjBgY2vgM++1bcAwpn6W+vkWUwFA/MNQPDPXjGO7yeyrVPpVReGlu/uVdUtJMzIowsp3H8Io7PmVOY9Ii3qlg0jg7FWaEEsF5aVGWcPr4MLSRN+T08ZUYJvKGkwAObjTDsGi+8ky7hkHrpdX4GIaZDkP/mncQmR0diC7DEQw9qDTcNV95RpfhGoYeVBo+Nl95RpdhCkMPMPx/jISh+eeb0z+EoY3gzPtV3HAYsqJVNZtUGpKAoYe3WzHk9PFhaCNoaA4dc7rcMLTxGa6nD1RmJjpfBJdMzbt0G562WJiYOSFm7TGMEhjqB4b6gaF+BO+HmcD98Od/44CuWVvE3zhg3qWc/qGS8/hvdjQtBoY28us0nM5MS9+p0NNam6BhT+ulnFX9OaFE55o3DG3ke0/xG3JWEw/NV17GwLALQzPp56wm6jLcEkp0Gr4TSpQZmj1RJ0JJy+eAezL8IJToNPxNKFFmaPaX/iGUSBhev0eYdDykXcOe9nlLGjKiOYbD5ksvY5QYFnxDJafV4zcc3IwhZQG7JcN+zx92/VnqO3/Y7xlSyoHQ6gzphjAy3xnSKIGhfmCoHxjqB89GCI1GH9/GGHLOcisxxE6FmhgY2tz0ToXp/rGR5asb3VMfv8+dCv7voA0COxV8wNCDfJc7fsOI+/gmOv4+/l9CiU5D7FRw0GWInQo+dBmaLjd2KjioNEQf3xcTv6GSHnD8ffz4DbFToSZGybMRBHcq9PRc7pOpYcTsCDHOc7nNTDFKyqnJUXoYHVI+mGrWfKFazOJVvH/E7y7lWnokHXE633Tz5qsVMnLuueO0GMRE8TqmNOMAAAAAAAAAAAAAAAAAAAAAAACAH8E/aYiOSaHN9HIAAAAASUVORK5CYII=;" parent="1" vertex="1">
          <mxGeometry x="360.10999999999996" y="931" width="31.2" height="39" as="geometry" />
        </mxCell>
        <mxCell id="unXl9Iu9AfT90pD_fUez-5" value="" style="shape=image;verticalLabelPosition=bottom;labelBackgroundColor=default;verticalAlign=top;aspect=fixed;imageAspect=0;image=data:image/png,iVBORw0KGgoAAAANSUhEUgAAASIAAADICAYAAABMFuzmAAAAAXNSR0IArs4c6QAAAARnQU1BAACxjwv8YQUAAAAJcEhZcwAADsMAAA7DAcdvqGQAABWFSURBVHhe7d1rbBTVGwbwl2tb5VYKLa2FSmkLBRGhQkspN7l5gVpL+EDUYBQTFTQkflH4AImBIJgSEggJIcH4QQOWSEGiQiEFUlFLuMgt0kIrpRaUIuUSKAjz3+dk5q/iznSmdGaWzvNLTiCz22165uwzZ2bn3dPuiy++0L788kv54Ycf5LfffhMr7du3l8GDB0tmZqZkZGRI165d9UeotZw6dUq2bt0qjY2N+hZraWlpkpeXJ3369JEePXroWymcy5cvS11dnVRUVMjp06f1rea6d+8uCQkJMnbsWElPT9e3kpmrV6+qsXvy5El9i7W4uDiZPHmyGsOOgoiIyA3t9X+JiHzDICIi3zGIiMh3DCIi8h2DiIh8xyAiIt8xiIjIdwwiIvIdg4iIfMcgIiLfOSrxaNeunTz22GOSlJQkiYmJEh0dLffu3dMfpQeFWj7sg4MHD8rNmzf1rdZ69+4tAwYMUHU7qP3D/tA0TX+UAOMWfXvhwgWprq5WNWfXrl3THzXXs2dPVcOXnJwssbGxql/Zt+YwZg8dOmS7VAzjdfjw4RIfH+8siLAzs7OzZeTIkZKVlaV2zl9//aU/Sg8Cb5YOHTqogsx169bJpUuX9EesDRkyRJ599llVhIwDxN27d3lwuA/6tmPHjnL06FEpLS2VyspKVfzaHBS64o2Sm5srqampqm8ZROYaGhpk/fr1agzbgUnN3LlzZejQoc6DCIMeFbPjx49XlcncMa0Hb5hdu3bJwoULpb6+Xt9qbfTo0TJnzhy1M1NSUrg/TKBvy8vLpbi4WB21z5w5oz9ibsSIETJhwgSZNm2aCnz2rTWM2UWLFqkxbAeq7j/66CMZM2aMCIKosLBQCx1N0cuWLXTEVs/duHGjFjqihPYLtbaSkhItdCoQtv/DtdAbBQcSraqqSn8FMrN7927ttdde0wYNGhS2L+9vOTk52pIlS7RQcOmvQFZqa2u1/Pz8sH0ZrmVmZmqhGaoWmsFrji9Wh34fr0NQIGCc49IDx7o70K/GpYQWBRF3DD2MjOtw+NcOBpE30L/8+J4CA9c4nQTRP4/Y5C4GERH5jkFEZIKnZN5hEBGZME7NGEjuYxBRoOA6kd1rROQdBhEFBgKIQRSZPAmi27dvq5IF1PoEpV28eFHd8o6aJkzv6eHDUzPvOCrxwEefM2bMkOnTp6tSD9SKNAc7EUWGJ06ckOvXr+tb2z4cebFAH4pSUTSJAmE7tm3bJvPmzZPz58/rW6yhBAHPR00Uil/J3P79+2XTpk2yd+9eOX78uL7V3LBhw1Qp0+zZsyUnJ0ffSmYwZjEWMYbtGDRokKxevVqeeeYZ94MIN4QdPnxYioqKpKamRt/a9nXu3FmefPJJVQuGWiVUx9vBIHIPgghjvaysTI4dO6ZvNccgcuZBgshxrVlBQYG2YcMGLfRLQ5Mda/fu3dOampq0nTt3qrqScK/ZVltoBqRNmTJFW7VqlVZfX6/3SPNYa+aeUBBp7733nhY6QITty/sbnjd//nztwIED+iuQFae1Zqj5++6777Q7d+44rzUje3BBFF894eROXoosuKOad1Z7g0HkMoZQ5MC+cHpgCB3o9f+RmxhEFBgtCSLyBoOIiHzHICIygdMyXh/yBoOIyARCCLefMIzcxyCiwHD6fUTAi9XeYBBRYCCAcEsFAokiC/cIEfmOQURkAqdlRiN3MYiITCCAWH3vDQYRBQauDeEakd2L1ZwReYdBRIGBIMK3IuCTM4osDCIi8h2DiIh8xyAiIt8xiCgwcJHaaHbgIjXLO7zBIKLAQAA5KfFgrZl3GEREFvjRvTcYRC7jQCZqHoPIJQggTOt5Z27kcHpqRt5xdTkh48148OBBWbp0qZw9e1Z/pO2LioqSp556SsaNG6f6C+ub2cHlhNxz9OhR2bNnj2zZskXKy8v1rebQnyNGjJC3335bJk6cqG8lMxG9rhlmBLW1tVJaWqoWWgzKVzDg70xISJDHH39crW/WtWtX/RFrDCL3MIjcFdFBhFnR1atX5dy5c3Lr1q3ATIvxd8bExEi3bt0kPj5elRbYwSByD4PIXQ8SRK4usEjOcYFF9xw5ckQrKirSxowZE7Yv72+hINJmzZqlhcJLfwWywgUWiWzAjB7X7vAvRRYGEQWG068BgdCBXv8fuYlBRGQCd1Tz9gtvMIiILCCEGETuYxARke8YRBQYxjUiu/ey4bTszp07LHr1AIOIAgMXqZ0EEavvvcMgIiLfOQoi48IdpqxoOFpg6srWOq0ln9AY+4P7wroZYxazG7t9jOfh+Wj42XCvy/Z3czp7RP8a49ZRiQemtM8995xqKPHo06ePeiF6cDhtQBnIN998I++++67U1dXpj1gbO3asvPnmm6qerX///o6DLAiMa0OnT5+Wn376ST7//HMpKyvTHzWXlJQkAwcOlAULFsjkyZPVWGf//pdxXxbG7Pvvv6/GsB3p6eny8ccfq8JwR0GEX5iRkfH/1qVLF54/tyK8WX755RfZsWOHNDY26lutpaSkyMiRI9VBITY2Vt9K/4RxizBqaGhQBdioOauurtYfNYdCZXxrQm5urqSlpalZEZlDTSlCCIFvR1xcnJrQoDDcURAREbmBF6uJyHcMIiLyHYOIiHzHICIi3zGIiMh3DCIi8h2DiIh8xyAiIt8xiIjIdwwiIvIda80iCGvN3NHSWjOs25eamiqDBw+WxMRE1po1w7NaM1bfuwdvFlbfu8Oovq+srJQff/zRdvV9VlaWTJo0SV588UW1fDir78PD2AXPqu+xQ7HS6/PPP6+CCF+TwB3TetC/X3/9tcyfP9/2Sq/jx49XK5HijYKjN4WHvkUQ4WtAPvvsM9m9e7f+iDnMNPH1Hy+99JJa8ZWzf2sIIhxEMYbtwFesFBUVqVV0HV0jQvKhYYE6NBxlOnXqxNZKDX1qHF3sMvYH94V1Qx8hjFrSx8bPhXtdtr8bxiD6yq5/jl1erKbAwOwd13nszuKNb2bkrN8d6FejMYgoMDDgcZ3H7ikWnufk+eQcgh79yyCiwHAaLHgevk+ZQeQOHBgQRGgMIiITCCCemnmDQURkAgGEMGIQuY9BRES+YxBRYGB24+SmROMaBmdE7mMQUWAgVJqamtS/djgNLmo5R3dW4+Yj3Fk9ffp0dWc1anGag52IGpRz587JrVu3HN9M9rDC3xkTEyPdunWT+Ph4Vb5hx7Zt22TevHm276yeMGGCev7w4cNlwIAB+lYKBzVme/bskS1btkh5ebm+1VxmZqbk5OTI66+/Lnl5efpWMoMxi7GIMWwH6lVXrlypymhcDyIcfVBoWFpaKpcvX3Z05+XDDH9nQkKCKuhDHRgW67ODQeSelgRRdna2CiLU9JG1lgTRihUr3A8izIYwta2oqJBly5bJ2bNn9UfavqioKFX/hYI+9BdWDLWDQeQep0GEWqhRo0bJ3Llz1X4ka06DCEWvy5cvV/V8giAqLCzUkpKScCJs2UJBpBUUFGgbNmzQQr80lDPWQufYWuicXNu5c6cWOrqEfc222qKjo7UpU6Zoq1at0urr6/UeaV5JSYmWnJwc9jXDtVAQ4UCiVVVV6a9AZg4fPqx98sknWm5ubti+vL+F3ija7NmztbKyMv0VyErozEfLz88P25fhGvq3uLhYu3LlisaL1S7BNSIU82EWGZTrYpEu9F5x9CmYcUMj/iV3MYhcxhB6uNkNLXowDCIi8h2DiALD6akZeYdBRIGBADKaHU6fT86hb3ENjkFEZAJvEs6g3GP0L4OIqBkMIXehf9EYRETkOwYRBQZOAW7fvq1OB+zA8/B83kfkPgYRBQYCxUk1vfF8BpH7GEREJpwGF7Ucg4jIBGdE3mEQEZlgEHmHQUSBgVMsJ8FiBBFPzdyBfsUHAmgMIgoMBAsGPS9WRw70LRqDiMiEEUScEbmPQURkgjMi7zCIiEwggLDkNGdE7mMQUWAYF0ftBguey7XvvcEgchmPppHDaRAZMyIGkfsYRC7BYMf1BScDnyILQujmzZtqP5K7XF/XDDvx8OHDUlRUJDU1NfrWtg8LKmI9s9GjR8u0adMkLi5Of8QalxNyz/79+wVjvaysTI4dO6ZvtYb16NauXSuvvvqqvoXMOF1OCON18eLFajkhT1Z6xcKKJ06ckOvXr+tb2z4ssNi9e3e1nllycrJER0frj1hjELkHQbRp0ybZu3evHD9+XN9qjUFkX0QHEeCrFLDsdJCmuMZyQpgZPfLII6rv7GAQuWffvn0qiPCvkyBas2aNCiKuyGLtQYLIk2tEeDP26tVL+vTpE5iG5aZxOoaBbDeEKDJhVm80cgcvVlNgIEjwCRgDJTJgP+DDHOwTBhEFCoMo8mB/MIiIyHcMIgoMnppFLgYRBQZCCJ/cMogiD4OIqBnGTIrc4ziIcC8F76cgotaCPGlREOGuYYYRBQXGO+4F45hvXf/MEkd3VuOHcEc17oQcP368ummP59utBztk165dsnDhQqmvr9e3WkMt25w5c2To0KGSkpLC/WECfVteXi7FxcVy6NAhOXPmjP6ItUcffVSWLl0qhYWFDKJmYMwuWrRIjWE7MF4XLFggY8eOdR5E2dnZMnLkSMnKypLY2FhWJrcSDHIcdSsqKmTdunVy6dIl/RFrQ4YMUQeHjIwMSUpK+v8NYvQ39C3KbY4ePSqlpaVSWVkpdXV1+qPWYmJiZO7cuTJu3DieCTSjoaFB1q9fr8awHZjIzJo1S4YNG+YsiLATUF+GAZ+YmKgKOTnoWw8GOvbBwYMH1ddP2IGiWtTsGOUk/Hj6vzBu0bcXLlyQ6upqVYR97do1/VFrCDDU8fXr10+9BpnDmMVss7kcMWC2mZmZqQLJURAREbmBEU9EvmMQEZHvGERE5DsGERH5jkFERL5jEBGR7xhEROQ7BhER+Y5BRES+YxARke8cF70OHjxY1YegyBK1TdS6Tp06JVu3bpXGxkZ9i7W0tDTJy8tTSxj16NFD30rhoMYMxa4oyjx9+rS+1RzqywYOHKjGPGoryRrWLsTYPXnypL7FWnx8vBQUFEhqaqoIgqiwsFBLSkpCpaRl69ChgzZz5kxt48aNWmiHatT6SkpKtL59+4bt/3Bt0qRJ2vbt27Wamhr9FchMVVWVtnnzZm3q1Klh+/L+lpOToy1ZskQ7dOiQ/gpkpba2VsvPzw/bl+FaaEKjlZaWavfu3dMcn5qhupsV95ED++LOnTvcJzbgK1Kw6rDdvsJX3DQ1NbFvXRLKLtXH2C+Ogwg/bDTyH/YDv4PIHqOv7I5dhry7jBxB//JiNZEJ401iN7io5RhEFBgIFZwK2J3hMIjcZ8zmGUQUGAgUp0Hk5FSOnDH6F41BRGQCgcUg8gaDiMgEAoinZt5gEBGR7xhEFBiY3Tj5ON64hsEZkfsYRBQYCBUnNzTiebi4zSByn6NaMywAOGPGDJk+fbpa1A9rnDUHOx/1Pfv371e1KFgnqq3DAMZaWlivCfVKqMvDGk52bNu2TebPny+1tbX6FmsTJkyQefPmqbW3sL4ZmcMCi3v27JEtW7aoVV+bgzozLCj6xhtvqAUWydr58+fVWMQYtgPvi5UrV8qkSZPcDSIcSTAVPnLkiKxevVoFUufOnfVH2y6EL/oKxZIYyFOnTlULINrBIHKP0yDCG2XUqFFqpVcssU7WWhJEK1as8C6Ivv/+e/nggw/UUr9BWC0Tf3dUVJTk5OTI5MmTZebMmarS2A4GkXsYRO5yGkTp6emyfPly9R7xJBUQRjgtw9cwYE33tt6wBjj+1hs3brBWKYLgAIF9YfeaD56H2S25B32MxovVLjHWW0fD/8l/RrDYDSLjYjUPJO5jEBGR7xhEROQ7BhEFhtNTM/IOg4gCAwFkNDucPp+cQ9/iGhyDiMgE3iScQbnH6F8GEZEFvEF4+4W7EEZoDCIKFCezGxytGUTeYBBRYBgzHASMHQgthpA3GEQUGAgVJ9X0RhA5mUVRyzCIiCwwhLzBICIyYcygeHrmPgYRkQkGkXcYRBQYOM1yEixGEPH0zB3oV3xwgMYgosBAsGDQ2w0Wzojch75FYxARmTCCiDMi9zGIKFAQLpwRRR4GEQWG0xkOno8bIDkjch+DiMgESzy8wyAiMmHMiBhE7mMQEZlACN28eVOdzpG7XF9gETvx559/lrVr19peIqctwPptw4YNU8vRYHG+2NhY/RFrXE7IPVjkE2O9rKxMjh07pm+11rVrVzV2X3nlFS6C0AynywlhvC5evFgtJ+R6EOFCH44qWGYHy/0GBQZtTEyMWuG1S5cuqu/sYBC5Z9++fbJ582bZu3evHD9+XN9qDUG0Zs0aFURBWJPvQTxIEAmCqLCwUEtKSsJHA5Yt9GbSCgoKtA0bNmihXxrKGGptJSUlWt++fcP2f7gWCiIcSLSqqir9FchMKIC0d955R3viiSfC9mW4Fgoi7dNPP9Xu3r2r3bt3T38lCid08NTy8/PD9mO4Fgoi1bd1dXUaI56IfBHKLtXwYQCDiAIDg95JiQd5h0FEgWIchSmyMIiIyHcMIgoM43oEZ0SRh0FEgYEQYjV9ZGIQETXDmEmRexwHEW7U4x2mkQU32nGf0MMKY7dFQcSBHzmwLzp16mT7zm1yDn2M/uWYb11Glqg8cVLigR+YOHGiqp3Kzc2V3r1783y7FWHHoPxg2bJlcvHiRX2rNdSyvfzyy5KRkSGJiYlqG/fJvxkBUlFRIdu3b1e1jzU1NWpbc1Ci8+GHH8oLL7ygb6Fw0Me///67Gruo5bMjOTlZ3nrrLcnOznYWRPhl6enpkpaWphpqqPgpROswjg5VVVXy7bffytWrV/VHrPXr10+ysrJUCKGwljfs/ZfRt7/++qsKIYzzhoYG/VFrKF6eOnWqDBkyRN9C4aB/r1+/rsZuZWWlvtVajx49ZMyYMdK/f39pV1xcrH311VeqILC5QkvsUPyw0bCTeBGvdaBv0a5cuSLV1dW2C4RRlJmQkKCO3NHR0SqEGET/ZvQtwv2PP/5Qb5hbt27pj1rDKVlKSorExcXpWygc9C++NgUzzT///FPfai0qKkqSkpKke/fu0m7Hjh0aqmV37typ3gBERF5r36tXL5X4+MoKIiI/tMcFZ5yjYWpPROSH9ri+gAvQDCIi8kt7XOCMj4+XvLw8efrpp9UFJCIiL7XHx249e/ZU90ngY0p8JI8r4EREXlF3VmMWlJqaqm4sQhjhVI2IyCsdloRgVoRrRCgV6Nixo7qHpbGxUVUq494AIiI3tdP+cfcbVtvAzUhHjhyRAwcOSElJie1lV4iIWupfQWTALfAoNUDd08mTJ9Xdvrgb9caNG9LU1KRmSbx7l4hah8j/AApYZN6vDzaDAAAAAElFTkSuQmCC;" parent="1" vertex="1">
          <mxGeometry x="360.10999999999996" y="1033.96" width="32" height="22.07" as="geometry" />
        </mxCell>
        <mxCell id="unXl9Iu9AfT90pD_fUez-7" value="" style="shape=image;verticalLabelPosition=bottom;labelBackgroundColor=default;verticalAlign=top;aspect=fixed;imageAspect=0;image=data:image/png,iVBORw0KGgoAAAANSUhEUgAAAMkAAADKCAYAAAAPUmSrAAAAAXNSR0IArs4c6QAAAARnQU1BAACxjwv8YQUAAAAJcEhZcwAADsMAAA7DAcdvqGQAAA9ZSURBVHhe7d1dUBbVHwfwn6iBZgmaBMREGmD4khUhaCQ1IvY64+R00XRhN11k1nXjlTd51eB00XjjjDNd1Gg4aebUYDqC0yuOUGBMoEEZYZNaBA5i5f73e9rtn/bsnnMeWcLnfD8zO9TuE8Tufvfs2f1xzpS3337be+edd+Szzz6TH3/8UeJkZWXJokWLpKKiQsrLy+Wmm24KttB46e7ulr1798rQ0FCwJl5paanU1tZKQUGB5ObmBmsplfPnz8vAwIC0tbVJT09PsDba7Nmz5dZbbxWrkBC5KCv4SkQRGBIiDYaESIMhIdJgSIg0GBIiDYaESIMhIdJgSIg0GBIiDauylClTpshtt90mRUVFUlhYKDk5OXL58uVgK10r1MbhGBw7dkxGR0eDtfHmzZsnd955p8ydO1fV0uF4eJ4XbCXAeYt9e+bMGenr61M1XMPDw8HWaHPmzFE1cdYFjtXV1VJVVSWVlZWSl5cnf/zxR7CVrgUO5NSpU1Xx3fbt2+Xs2bPBlniLFy+WRx55RBWc4uL1559/8sJ1FezbadOmyZdffikfffSR9Pb2qkJHnbKyMrn33nvtQ4IDUl9fL3V1dapCklet8YODefDgQdm8ebMMDg4Ga+OtWLFCNmzYIEuXLpWSkhIejwjYtx9//LE0NTXJ8ePH5dSpU8GWaPfdd5889NBDIgjJU0895flXIezd2MW/0qnP7ty50/OT6B8PGm/79u3ziouLU+7/VIt/EHGR806ePBl8B4py6NAh77nnnvPuuuuulPvy6qWmpsbbsmWLZ91x938W73vJCTjP0Z1IKyQMCF2Pwn4fvppIOyRE1yv0qW1CgsYAD0IYEiINhoQoQtitYEiIIvB2i5yEfolpnyTEkJAzEI50QmL1xh1PBp588kl54okn1Jt31HGZuHTpkvz2229OlbDgQKAU4oYbbpCZM2eqfWfivffekxdffFF++OGHYE08vBHG51E+gRouitba2iq7du1SX7u6uoK10e655x5VWZJ4SHBfh4KyEydOyMjISLA28+GKhcHNUIBYXFysikFNMCTJOXr0qApJS0uLUUiWLVs2MSFB69He3i6NjY3S398frM18aEHuvvtuVVu1du1aVaVrgiFJDkKCc/3IkSPS2dkZrI0WhsS6dmvdunXejh07PP8g+o1EvMuXL3tjY2Nec3OzV1FRkfJ7ZuritxzemjVrvG3btnmDg4PBHtFj7VZy/JB4L7/8sudfvFLuy6sXfG7Tpk32tVtkJuyToPW17SjS5ICyFD4CngAMyOSBY2F70fIbIIaE3JFOSIAhIdJgSIgi4FYL/RKGhCgC/56EnGP79yTAjjs5BeHAY3mExQZDQqTBkBBFwK0Wb7eIYiAgfONOTkFfBH0S0447WxJyDkKC6mw84bLBkBBpMCREGgwJkQZDQs5Ahz1cTKDTztotcgrCYVOWwtotIgN8BDwBsJPp+saQJAThQFONN7YMyuRge7sVSnRIofBEwUSZr776qnz77bfBlsyXnZ2tBjdbtWqV2l8Yf8sEhxRKDuZMPHz4sOzZs0dNDaeD/Ykp4RIfdwtX0tOnT6sJHTFInW2Z8vUKvyfmlLzjjjvU+FuYGdcEQ5KcSRsStCYY4vT777+XixcvWjd11yv8njNmzJCbb75Z8vPzVTmECYYkOemGJNHB6cgeB6dLTkdHh9fY2Og98MADKffl1YsfEu/pp5/m4HTkDtwJoa+IrzYYEnKGbak8+A0QQ0IUhcOcEhlgS0JkgCEhZ4R9EtN3dbjV+v333xkScgc67DYhYRUwkSGrkKATgwXNEBakDM0Rl/FZsE+xf22Ex4PHIn4Jz1m0Dqb7GJ/D563KUtBMPfroo2pBWUpBQYE6OHTtcCuA0pUPPvhAXnrpJRkYGAi2xHvwwQfl+eefV/Vh8+fPtw6ZC8K+SE9Pj3zxxRfy1ltvqXkTdYqKimThwoV2IcGBLC8v/3uZNWuWShqNDxzIb775Rg4cOCBDQ0PB2nglJSVSVVWlLlh5eXnBWvonnLcIyrlz51SxLWq4+vr6gq3RUJSK6m2rkBC5iB13Ig2GhEiDISHSYEiINBgSIg2GhEiDISHSYEiINBgSIg2GhEiDtVuTCGu3kpFu7RbGlVuwYAGrgCcLVgEnJ6wC7u3tlc8//9y4CriyslJWr15tHxKM4PjYY4+pkKCUmAdl/GD/vv/++7Jp0ybjERzr6urkhRdeUOMO46pHqWHfIiQolX/zzTfl0KFDwZZoaKHr6+vt+iS42mHB4F5YkM7p06dzGacF+xT710Z4PHgs4hfsIwQlnX3Mjjs5A3c9Nn/9if42Ps+QkDMQDvShTR824XP4PENCzghPepuQ4O/jGRKiCAgJb7eIYuD2DEFhSIg0GBJyRtgnMX26FT4NY0jIGTjhx8bG1FcTYais3rjjRQznTDSD35NzJk4utnMmVlRUSE1NTfIhQWo5+y5n350M0glJdXV1siEJX960tbXJ1q1bOY+7AYYkObYhwRCny5cvT3b2Xf+ezvPvAb3m5mbPT2XK75mpS05OjrdmzRpv27Zt3uDgYLBH9Dj7bnLa29u91157zVu5cmXKfXn1UlZW5j3zzDOcfTcp6JOg6DCdgjpKhp8TdfuPryb4MnGCMCDXNwSKISHSYEjIGba3WyGGhJyBcISLifCzDAlRBASEHXciDbYkRAYYEnIG3ntcunRJ3UKZwOfweYaEnGFbKh9+niEhisCQEGkwJEQaDAk5B30RnPQ4+U0wJOQcnPQ2ZSkMCZEGQ0KkwZAQaSAkHOaUnBIWLJr2SfBZhmQCmB4QSp5tSNiSJAwHAvezNgeFJhcEZHR0NPlxt3CitLe3S2Njo/T39wdrMx8Go8N4WytWrJC1a9fK3Llzgy3xOKRQco4ePSo41zFfYmdnZ7A2HsZLm5ARHDEo3YkTJ2RkZCRYm/kwON3s2bPVeFvFxcWSk5MTbInHkCQHIdm1a5e0tLRIV1dXsDbehIQEUG6MoU7RqrgiHFIILcrMmTPVvjPBkCSntbVVhQRfbUKS6OB0ZI+D0yXHb0G8jRs3ekuWLEm5L1Mtfkg4OB25w8+JemKFrzYYEnIKQ0KUAIaEnMHbLSINBARPWBkSonFmHRI8/+dI6eSStEKCt8kMCrnC6o07woE37fX19VJXV6fmBLS9v6NouPAcPHhQNm/eLIODg8HaeKgN27BhgyxdulRKSkp4PCJg32IKuKamJjl+/LicOnUq2BLvxhtvtA8JJlqsqqqSyspKycvLc6rUJEk4iChdwfyS27dvl7NnzwZb4i1evFhduMrLy6WoqEhVHaODSv+HfYsSIcyZiAlue3t7ZWBgINgaDzMoW4UEPwz1WjgYhYWFqmiPB2T84CKEY3Ds2DFVom0CBZSo2UKVMeqM0nnEmelw3mLfnjlzRvr6+lTB7fDwcLA1HsJlFRIiF/ERMJEGQ0KkwZAQaTAkRBoMCZEGQ0KkwZAQaTAkRBoMCZEGQ0KkYV3guGjRIqmoqFAFdWpMIhpX3d3dsnfvXhkaGgrWxCstLZXa2lopKCiQ3NzcYC2lgpotFDaiiLSnpydYG+3222+XhQsX2o+7tX79em/nzp2e/8M8Gn+2426tXr3a279/v9ff3x98B4qCscl2797tNTQ0pNyXVy81NTXeli1b7MfdQpUpK38nDxwLDOzMY6KHPyPAaKKm+wp/BjI2NmbfJ/ED+fdC/z0cB/4NiZlwX5meu+EFiB13oggIE4LCkJAzcMLjFsq01WVIyDk46W1DgtszhoQoAsLEkBDF4O0WkSGGhJyBVsHmnRL7JOQcnPA2LxPxOXT0rWq30pkzEf9jqJfBpI6YNxHjGGU67FyM9YQRLlH/gzo3jARognMmJgeD0x0+fFj27NmjRnPUQd0WBmNMNCRortC8dXR0yOuvv67Cgok2Mx0uDNhXKAbFTm5oaOAU1ZOAbUhwcVu+fPnEhOSTTz6RV155RQ0viUriTIffOzs7W2pqatS4yevXr5f8/PxgazyGJDnphmRCzlgEBbdaKFXGGLeZvpw7d079rhcuXLDqKFKywke6+GoCn2PHPUHh+LNY8M/03wtPetOQhB13hoRIgyEh0mBIyBm2t1shhoScgXCEi4nwswwJUQQEhE+3iGLg6RYe4TMk5BTTWy1AK8KQkFPClgEnvwkECv8NQ0LOCF8OmrYmDAmRAQSFISGKELY8DAlRBIaEnINbJ5z0OPlNMCTkHJz0rAImGkcMCTkJJz5bEqII4UlvExK+cSeKwbIUIg22JEQaCMjo6Gjyg9PhHvCrr76SN954Q06fPh2szXwYX2zZsmVqSJpVq1ZJXl5esCUehxRKDgZIxLl+5MgR6ezsDNbGw+S5iYcEnSSkEUPtYIhJV2CElBkzZqiRG2fNmqX2nQmGJDmtra2ye/duaWlpka6urmBtPDXDNEJiM/vuunXrvB07dnj+QfTPfxpvtrPv+iHBRU7NLEvx/HB4Gzdu9JYsWZJyX6Za/JDYz75L5BqGhJzhNyZWZSkhhoScgoAwJETjjCEhZ6AFsandCjEk5Azb2q0QQ0KkYR0SvCTjVAKTC6d3SFZaIeFBmTxwLKZPn278Rp/sWZWl4IA8/PDDqhZp5cqVMm/ePOv7O4qGCw9KJrZu3So//fRTsDYeasOeffZZNXVZYWGhWsdjcqXwgt7W1ib79+9XtYT9/f1qnQ7KiqxCgh9WVlYmpaWlakFNUjpPC+jfwhb65MmT8uGHH6rp80xgdt/KykoVEBRRpvOyLNOF+/a7775TAcF5jin7TKBQdUpTU5P37rvvquIvXZUuflhubu7fC74BQkLXDvsWy6+//ip9fX3GxaAowMNU2Lji5eTkqIAwJFcK9y0uPD///LOMjIzIxYsXg63xcBs75cCBAx4qT5ubm9XBIaIrZd1yyy1SUlKiyrqJ6N+y0PmeP3++aq6J6N+ycD+LzjhDQpRaFjp7+fn5UltbK/fff79kZ2cHm4gIsvBobM6cOfL4449LQ0ODeqyLJwFE9Bf1xh2tx4IFC6S6uloFBbdfRPSXqVt8aE3QJ0F5w7Rp09Qz+qGhIVUxiWFViFw2xfvHmyeMavLLL79IR0eHfPrpp7Jv3z7joVeIMtUVIQnhtT3KI1BH9PXXX6u3wHhLeeHCBRkbG1OtC9/qkitShgSlJuEfqOA1fnd3t6p7GRgYkPPnz8vw8DBrhMgZKUPyT6hxwcBy6KMgHPh39FnwnzEklPlE/gdFhWOHaw2RIgAAAABJRU5ErkJggg==;" parent="1" vertex="1">
          <mxGeometry x="360.11" y="974" width="21.89" height="22" as="geometry" />
        </mxCell>
        <mxCell id="unXl9Iu9AfT90pD_fUez-8" value="" style="shape=image;verticalLabelPosition=bottom;labelBackgroundColor=default;verticalAlign=top;aspect=fixed;imageAspect=0;image=data:image/png,iVBORw0KGgoAAAANSUhEUgAAARIAAACICAYAAAArvWSyAAAAAXNSR0IArs4c6QAAAARnQU1BAACxjwv8YQUAAAAJcEhZcwAAGdYAABnWARjRyu0AAA1PSURBVHhe7d1/aFX1H8fxt87Nfq2py1yabdqcG0vL0pyalmuUX4KIUdBPCso/+vFHEBjYH0lBEBV8CfonhEFQIEWGCYqmadDvMgaVsIoFazkz82fq1Dzf8/p8zy21e+85956ddU57PuCD89zbtfs+n73u55x7PuczasOGDZ4BQGDUqFGuVVVV2TnnnGPV1dVWU1NjtbW1du655wbPOtOoe++9lyAB8CeFSEVFhQuQCRMm2JQpU6y+vt5aWlps4sSJNmbMGBs9erRrOaMaGxsJEgBnUJhUVlba2LFj7fzzz7cLLrjAxo0bZ62trdbe3m7Tp0+3urq64Nn+8/1GkACIZPbs2dbZ2WkLFixwP+uQR4c7Ff5jq/7/FAAo7vfff7eenh73pw5txo8f70YqBAmAyI4fP2779++3wcFBO3r0qDsBq1EJQQKgZL/99pv19fXZRRdd5E7AEiQASuZ5np06dcoOHz7s/s7JVgCxLF261P76IhgAyuBOvAY/A0BZjhw5QpAAiEdBEvkciS6XnTRpkrvKTdff62SLGv6Sm6Nw7NgxN9zbs2ePHThwIHi0MNX0wgsvdF+l6WdqW5jqe+LECfvxxx9t3759wdZwumhKl3mrH6MwXRuS+4o318L64tSpU6MHyWWXXWbXXHONXXLJJe4ilD/++IPOfhZ1cu0IdfBdu3ZZd3e39fb2Bo8Wppo2NDS4uQy67Fhnw6ltfqqvvinYuHGjfffdd8HWcArpm266yfVj5Jfrv6rv999/75pqHNYXJ0+eHD1Irr32WrvnnnusqanJdXyhs59JO0J++ukn27lzp61du9Y++ugjt62YWbNm2aJFi9zZ75kzZ1LXIlTjX375xZ577jnbtm1bsDXctGnTbOXKlTZ37txgC/JRfTWSVr/94IMP7P3333cfbMUoSES9NrS1t7d769at8/whpd/PUYyf5N6aNWs8/xMwby3Pbm1tbd6qVau8HTt2BK+AYvr6+rxbb701by0LtebmZm/z5s2eP5IOXgWF9Pf3e11dXV5nZ6dXUVGRt56nNz9IvMgnW5VKOjbVIQ2KU61KOfTT80+ePMlIJGGqMYfk4VSfUg+vS/rWptQXH8lUp6i1KjV4ULpcbalxNKX0X+Hr3xTQDtOnpQIFySFEkkOQYMTQqI9D82QQJCnAJ2XyVGON+Bj1JYMgSQF1cs6RIMsIEgCxESQAYks8SE4/Ns1qS/qQo9xDm39DbXMt6RqX699Q4+GobeRL5G+44QZ79NFHbc6cOXb55ZcHWwvTG9BXmnv37rVDhw4FW7NJt+J3t5OrqHBzEcJofsLnn39uXV1d9t577wVbC7vyyivt+uuvt7vuusva2tqCrcUpeHS7O82LyPLFbJoAmlvuQEsfRKEpCOqL69atC7aE09SOF154wW688UY777zz/pzOUIj6ry7AVN9VnbNMC12p/0Z539Lf3+/mMq1fv97efffd0G+6SpprU2qQqINrB7z++uvuev0sW7JkiT344INusqI6fpjhCJKDBw/amjVr7JNPPrGBgQHX6bNISxroPc+bN8/Nzo1iOIJEU+P1C7V9+3Z7++23XVhnlSYqPvLII67WWtwqTDlBIgqS0OYHiffmm2+6eSRR+CHiffPNN97dd9+d9/Wy1G6//XbPDwfPD8fg3RXX09Pj+QHqdXR05H29s5u/g73HHnvM+/jjj4NXCPfrr796Tz75pNfS0uL54Zb3dbPQ/AD1XnzxRe/rr78O3lm4cuba+EHirV271vMD2PNHG8ErFabnffHFF96KFSu8ysrKvK+ZlaY+smnTJm9wcDDSe/eD2lu9erV32223Df1cGyTH33cu9TWcLoUOs3S4hXCqseqrpp8xtAiSFFDHLqdzRznexV8IkOQQJABiI0gAxEaQpEDu+B3JKvcQEuEIkhRQ5+Y2AslSjXVCO+yrTJSHIEkBPimHB3VODkECIDaCBEBsBEkK5IbcDLuRVQRJCihAdBKQIEFWESQpwIgEWUeQpETrnj3WuHy57Z4zxwa3bAm2AtlAkKTEf3p7bfSRI3bKD5RD//1vsBXIBoIkJU6eNgFvVFVV8BOGEoePySFIUmJ9Y6OdqKuzMU1NVr1iRbAVQ0UBkrtVA2Ey9AiSFFDH7qmpsd6XXrKJW7da1fz5wSMYSqoz0xCSQZCkgDo3c22QZQRJSjDcRpYRJBlG+CAtCJIM06EQ0+KRBoktR7F//37bvXu3vfzyy/bOO++4+4tm7R6j+sRXu+WWW2zlypV28cUXu6UMwpS6HIXqefXVV9vDDz9sS5cuDbYWp6U+XnnlFdu8ebNbPuD48ePBI9mQq+38+fOto6PD2tvbrbm5OXi0uHKWo1CNn376afdvaT+G3TRby6n88MMPbjmG1atXu3NYWbxHrmrc2NhozzzzjC1YsMAtRxH2PlK1ro0WFtLiWNrZWnulsrIy0uJSaZI7CTp37ly78847E1vXppwgUX0V0F999ZVb4yZrIxN1cP0/T58+3a644gq3rk1DQ0PwaHHDESRa1+bnn3+2Tz/91DZt2uS2Za3/impcV1dn9913n7W0tCS2rk1iQTI4OOh2xs6dO92Oj7pKXZrkDh2mTJlis2bNcqORKDtiOIJE9f32229t165dbjSiX8wsUW3VFM76xZ46dar7OYrhCBItOHbgwAH3b2lkIlkMEtVYqxheddVVbrW9KO8hVQtkjWSlLpDld3Lvjjvu8LZu3Rq8AoopZ4Es1fi1117z/FGG548yg1dCPn54skAWkI//++E+WfUJjaFHkKSEOjqSR52TQZCkQO5cDJ0cWUWQpIRChCBBVhEkAGIjSFJAhzX6upETgcgqgiQFFCDM/kWWESQAYoscJLo+P4tXp/5TVKcszs34t2OfhFONci2qyKmgX4wszpf5J6hGCl06bXpoX2i/0H+jKbVWkefaaAbhdddd5yYAjRs3LtiKfDQzV/MVNN+mp6cn2FpYTU2NTZo0yRYvXmwzZswItqIQTVLUhEXNNYqqtrbWzbNRP9bcE0K+ME0IVb/VPDnVOOzcXUmT9gAgHwUJ4zwAsREkAGIjSADERpAAiI0gARAbQQIgNoIEQGwECYDYCBIAsREkAGKLfIm81sTQ2iCas1BdXe2uv+fWgGfKTQwbGBiw3t5eN+dG8xbCTJgwwc1huvTSS93aLtx2sbijR4/ajh073AJWUanPak0mrWnDPJvC1H+PHTvm1ktSfTVnLKwvljTXprW11ZYtW2ZNTU3uP+TW/n+nDqoFtLq7u93CWFooSzsijCbqqZMvXLjQrTzHjaCL0wqOr776qpsUGZUWOXvooYfcQmfMAC5M/Xffvn325ZdfuvpqpcEhnbSndUPvv/9+tyPq6+vp6AUoTD788EN766233KdmbpW2YrTKnlYyvPnmm11gU9vi9Gn51FNPuXWPo9Ks32effdYWLVrEiKQI1UZrdm/fvt19GGrFvShBIuq1oY2V9qLbsmWL98ADD3jNzc15a3l2a2tr81atWuX5wRO8AoopZ6W9lpYWz//F8PxfiuBVUIg/iva6urq8zs5OVtrLEiW+7tnq78NgC4aaasvheDSqlepUSn8kSBKg4WEpd0gjSIYPNY5GdSJI/mE6mVdKkGiH8WmJLCNIAMRGkKQAw21kHUGSArlDGwIFWUWQJETnSbheASMFQZIABQhBgpGEIEkBDm2QdQRJAjQSKWU0ogDJNSCLCJKEcGiDkYQgSUBuRBI1SDQS4WI0ZBlBkgIKEa5sRZYRJAnQSKSUS+SF8yPIMoIkAeUECZBlBAmA2AiSFOBkK7KOIEkBhYjuR0KYIKsIkgSUej8S4WQrsowgSYACRHfjVqAAIwE9HUBsBEkK6LAm14AsIkhSQAHC7F9kGUGSAJ0b0TmSqCdbGZEg6wiSBChIqqqq3Dc3wEhAkACIjSABEBtBAiA2giQBOsmaa1HoJCuXxyPLCJIEKEBKuUSeuTbIOoIkJfjqF1lGkACIjSBJQKmHNkDWESQJUICwHAVGEoIEQGwECYDYCBIAsREkCdCJ1rFjxzJpDyMGQZKAUm8jIFxHgiwjSFJAV7RyYyNkGUGSEgoRggRZRZAAiI0gSUDuHIn+jEKHNSdOnGDSHjKLIEmATrKWEiTM/kXWESQAYoscJDoRqCG4Pjk1DKflb6qRmkYXUU+e6nl6vlruMIdWuJUzelON6bvhTTXK9WHVLGof1oUOkZ65ePFiW758uc2ePdumTZsW+R8YSXLnRnp6euyzzz6zN954w7Zt2xY8WtjkyZNt5syZ9vjjj1tHR4fbmdT373LX5fT399sTTzxhGzZscH+PYsaMGfb888/bkiVL3D5CfqrNwMCAbdy40dVXLSy01X8jB0l9fb3NmzfP6urqbPz48cFWnC4363fv3r3W19dn3d3d1tvbGzxaWHV1tU2cONEWLlxojY2N7tMAhR08eNB1cAV2VLW1tbZs2TJraGiIfO5qJFJtDh8+7Gqba2EfaiUFCQDkoyAhmgHERpAAiI0gARAbQQIgNoIEQGwECYDYCBIAsREkAGIy+x+xYELGV5nVCAAAAABJRU5ErkJggg==;" parent="1" vertex="1">
          <mxGeometry x="360.10999999999996" y="1007.06" width="32" height="15.88" as="geometry" />
        </mxCell>
        <mxCell id="qlyStpaNBxaLBWbQgAqg-1" value="&lt;font style=&quot;font-size: 18px;&quot;&gt;results_database.sqlite&lt;/font&gt;" style="image;html=1;image=img/lib/clip_art/computers/Database_128x128.png;fontSize=21;" parent="1" vertex="1">
          <mxGeometry x="327.5" y="565" width="55" height="60" as="geometry" />
        </mxCell>
        <mxCell id="qlyStpaNBxaLBWbQgAqg-2" style="edgeStyle=orthogonalEdgeStyle;rounded=0;orthogonalLoop=1;jettySize=auto;html=1;endArrow=oval;endFill=0;startArrow=oval;startFill=0;endSize=6;targetPerimeterSpacing=6;sourcePerimeterSpacing=2;startSize=6;fillColor=#0050ef;strokeColor=#663300;" parent="1" edge="1">
          <mxGeometry relative="1" as="geometry">
            <mxPoint x="131" y="110" as="sourcePoint" />
            <Array as="points">
              <mxPoint x="131" y="605" />
            </Array>
            <mxPoint x="320" y="605" as="targetPoint" />
          </mxGeometry>
        </mxCell>
        <mxCell id="qlyStpaNBxaLBWbQgAqg-3" value="&lt;font style=&quot;font-size: 18px;&quot;&gt;demand_database.sqlite&lt;/font&gt;" style="image;html=1;image=img/lib/clip_art/computers/Database_128x128.png;fontSize=21;" parent="1" vertex="1">
          <mxGeometry x="329.5" y="430" width="55" height="60" as="geometry" />
        </mxCell>
        <mxCell id="qlyStpaNBxaLBWbQgAqg-28" value="Tables" style="swimlane;fontStyle=1;childLayout=stackLayout;horizontal=1;startSize=30;horizontalStack=0;resizeParent=1;resizeParentMax=0;resizeLast=0;collapsible=1;marginBottom=0;fontSize=11;spacing=1;" parent="1" vertex="1">
          <mxGeometry x="490.5" y="550" width="200" height="120" as="geometry" />
        </mxCell>
        <mxCell id="qlyStpaNBxaLBWbQgAqg-29" value="traffic_assignment_link flows 1" style="text;strokeColor=none;fillColor=none;align=left;verticalAlign=middle;spacingLeft=4;spacingRight=0;overflow=hidden;points=[[0,0.5],[1,0.5]];portConstraint=eastwest;rotatable=0;fontSize=11;spacing=0;" parent="qlyStpaNBxaLBWbQgAqg-28" vertex="1">
          <mxGeometry y="30" width="200" height="15" as="geometry" />
        </mxCell>
        <mxCell id="qlyStpaNBxaLBWbQgAqg-30" value="traffic_assignment_link flows 2" style="text;strokeColor=none;fillColor=none;align=left;verticalAlign=middle;spacingLeft=4;spacingRight=0;overflow=hidden;points=[[0,0.5],[1,0.5]];portConstraint=eastwest;rotatable=0;fontSize=11;spacing=0;" parent="qlyStpaNBxaLBWbQgAqg-28" vertex="1">
          <mxGeometry y="45" width="200" height="15" as="geometry" />
        </mxCell>
        <mxCell id="qlyStpaNBxaLBWbQgAqg-31" value="..." style="text;strokeColor=none;fillColor=none;align=left;verticalAlign=middle;spacingLeft=4;spacingRight=0;overflow=hidden;points=[[0,0.5],[1,0.5]];portConstraint=eastwest;rotatable=0;fontSize=11;spacing=0;" parent="qlyStpaNBxaLBWbQgAqg-28" vertex="1">
          <mxGeometry y="60" width="200" height="15" as="geometry" />
        </mxCell>
        <mxCell id="qlyStpaNBxaLBWbQgAqg-32" value="transit assignment flows 1" style="text;strokeColor=none;fillColor=none;align=left;verticalAlign=middle;spacingLeft=4;spacingRight=0;overflow=hidden;points=[[0,0.5],[1,0.5]];portConstraint=eastwest;rotatable=0;fontSize=11;spacing=0;" parent="qlyStpaNBxaLBWbQgAqg-28" vertex="1">
          <mxGeometry y="75" width="200" height="15" as="geometry" />
        </mxCell>
        <mxCell id="qlyStpaNBxaLBWbQgAqg-33" value="transit assignment flows 2" style="text;strokeColor=none;fillColor=none;align=left;verticalAlign=middle;spacingLeft=4;spacingRight=0;overflow=hidden;points=[[0,0.5],[1,0.5]];portConstraint=eastwest;rotatable=0;fontSize=11;spacing=0;" parent="qlyStpaNBxaLBWbQgAqg-28" vertex="1">
          <mxGeometry y="90" width="200" height="15" as="geometry" />
        </mxCell>
        <mxCell id="qlyStpaNBxaLBWbQgAqg-36" value="..." style="text;strokeColor=none;fillColor=none;align=left;verticalAlign=middle;spacingLeft=4;spacingRight=0;overflow=hidden;points=[[0,0.5],[1,0.5]];portConstraint=eastwest;rotatable=0;fontSize=11;spacing=0;" parent="qlyStpaNBxaLBWbQgAqg-28" vertex="1">
          <mxGeometry y="105" width="200" height="15" as="geometry" />
        </mxCell>
        <mxCell id="3wJx7StG8SSQRLEVqsMy-1" value="Tables" style="swimlane;fontStyle=1;childLayout=stackLayout;horizontal=1;startSize=30;horizontalStack=0;resizeParent=1;resizeParentMax=0;resizeLast=0;collapsible=1;marginBottom=0;fontSize=11;spacing=1;" parent="1" vertex="1">
          <mxGeometry x="490.5" y="690" width="200" height="210" as="geometry" />
        </mxCell>
        <mxCell id="3wJx7StG8SSQRLEVqsMy-2" value="agencies" style="text;strokeColor=none;fillColor=none;align=left;verticalAlign=middle;spacingLeft=4;spacingRight=0;overflow=hidden;points=[[0,0.5],[1,0.5]];portConstraint=eastwest;rotatable=0;fontSize=11;spacing=0;" parent="3wJx7StG8SSQRLEVqsMy-1" vertex="1">
          <mxGeometry y="30" width="200" height="15" as="geometry" />
        </mxCell>
        <mxCell id="3wJx7StG8SSQRLEVqsMy-3" value="fare_attributes" style="text;strokeColor=none;fillColor=none;align=left;verticalAlign=middle;spacingLeft=4;spacingRight=0;overflow=hidden;points=[[0,0.5],[1,0.5]];portConstraint=eastwest;rotatable=0;fontSize=11;spacing=0;" parent="3wJx7StG8SSQRLEVqsMy-1" vertex="1">
          <mxGeometry y="45" width="200" height="15" as="geometry" />
        </mxCell>
        <mxCell id="3wJx7StG8SSQRLEVqsMy-4" value="fare_rules" style="text;strokeColor=none;fillColor=none;align=left;verticalAlign=middle;spacingLeft=4;spacingRight=0;overflow=hidden;points=[[0,0.5],[1,0.5]];portConstraint=eastwest;rotatable=0;fontSize=11;spacing=0;" parent="3wJx7StG8SSQRLEVqsMy-1" vertex="1">
          <mxGeometry y="60" width="200" height="15" as="geometry" />
        </mxCell>
        <mxCell id="3wJx7StG8SSQRLEVqsMy-5" value="route_links" style="text;strokeColor=none;fillColor=none;align=left;verticalAlign=middle;spacingLeft=4;spacingRight=0;overflow=hidden;points=[[0,0.5],[1,0.5]];portConstraint=eastwest;rotatable=0;fontSize=11;spacing=0;" parent="3wJx7StG8SSQRLEVqsMy-1" vertex="1">
          <mxGeometry y="75" width="200" height="15" as="geometry" />
        </mxCell>
        <mxCell id="3wJx7StG8SSQRLEVqsMy-6" value="pattern_mapping" style="text;strokeColor=none;fillColor=none;align=left;verticalAlign=middle;spacingLeft=4;spacingRight=0;overflow=hidden;points=[[0,0.5],[1,0.5]];portConstraint=eastwest;rotatable=0;fontSize=11;spacing=0;" parent="3wJx7StG8SSQRLEVqsMy-1" vertex="1">
          <mxGeometry y="90" width="200" height="15" as="geometry" />
        </mxCell>
        <mxCell id="3wJx7StG8SSQRLEVqsMy-7" value="routes" style="text;strokeColor=none;fillColor=none;align=left;verticalAlign=middle;spacingLeft=4;spacingRight=0;overflow=hidden;points=[[0,0.5],[1,0.5]];portConstraint=eastwest;rotatable=0;fontSize=11;spacing=0;" parent="3wJx7StG8SSQRLEVqsMy-1" vertex="1">
          <mxGeometry y="105" width="200" height="15" as="geometry" />
        </mxCell>
        <mxCell id="3wJx7StG8SSQRLEVqsMy-8" value="stops" style="text;strokeColor=none;fillColor=none;align=left;verticalAlign=middle;spacingLeft=4;spacingRight=0;overflow=hidden;points=[[0,0.5],[1,0.5]];portConstraint=eastwest;rotatable=0;fontSize=11;spacing=0;" parent="3wJx7StG8SSQRLEVqsMy-1" vertex="1">
          <mxGeometry y="120" width="200" height="15" as="geometry" />
        </mxCell>
        <mxCell id="3wJx7StG8SSQRLEVqsMy-12" value="stop_connectors" style="text;strokeColor=none;fillColor=none;align=left;verticalAlign=middle;spacingLeft=4;spacingRight=0;overflow=hidden;points=[[0,0.5],[1,0.5]];portConstraint=eastwest;rotatable=0;fontSize=11;spacing=0;" parent="3wJx7StG8SSQRLEVqsMy-1" vertex="1">
          <mxGeometry y="135" width="200" height="15" as="geometry" />
        </mxCell>
        <mxCell id="3wJx7StG8SSQRLEVqsMy-9" value="trips" style="text;strokeColor=none;fillColor=none;align=left;verticalAlign=middle;spacingLeft=4;spacingRight=0;overflow=hidden;points=[[0,0.5],[1,0.5]];portConstraint=eastwest;rotatable=0;fontSize=11;spacing=0;" parent="3wJx7StG8SSQRLEVqsMy-1" vertex="1">
          <mxGeometry y="150" width="200" height="15" as="geometry" />
        </mxCell>
        <mxCell id="3wJx7StG8SSQRLEVqsMy-14" value="trips_schedule" style="text;strokeColor=none;fillColor=none;align=left;verticalAlign=middle;spacingLeft=4;spacingRight=0;overflow=hidden;points=[[0,0.5],[1,0.5]];portConstraint=eastwest;rotatable=0;fontSize=11;spacing=0;" parent="3wJx7StG8SSQRLEVqsMy-1" vertex="1">
          <mxGeometry y="165" width="200" height="15" as="geometry" />
        </mxCell>
        <mxCell id="3wJx7StG8SSQRLEVqsMy-13" value="fare_zones" style="text;strokeColor=none;fillColor=none;align=left;verticalAlign=middle;spacingLeft=4;spacingRight=0;overflow=hidden;points=[[0,0.5],[1,0.5]];portConstraint=eastwest;rotatable=0;fontSize=11;spacing=0;" parent="3wJx7StG8SSQRLEVqsMy-1" vertex="1">
          <mxGeometry y="180" width="200" height="15" as="geometry" />
        </mxCell>
        <mxCell id="3wJx7StG8SSQRLEVqsMy-11" style="text;strokeColor=none;fillColor=none;align=left;verticalAlign=middle;spacingLeft=4;spacingRight=0;overflow=hidden;points=[[0,0.5],[1,0.5]];portConstraint=eastwest;rotatable=0;fontSize=11;spacing=0;" parent="3wJx7StG8SSQRLEVqsMy-1" vertex="1">
          <mxGeometry y="195" width="200" height="15" as="geometry" />
        </mxCell>
        <mxCell id="3wJx7StG8SSQRLEVqsMy-10" value="&lt;font style=&quot;font-size: 18px;&quot;&gt;public_transport.sqlite&lt;/font&gt;" style="image;html=1;image=img/lib/clip_art/computers/Database_128x128.png;fontSize=21;" parent="1" vertex="1">
          <mxGeometry x="327" y="750" width="55" height="60" as="geometry" />
        </mxCell>
        <mxCell id="_cdkrZVvoebnsra8TFej-3" value="" style="strokeWidth=2;html=1;shape=mxgraph.flowchart.annotation_2;align=left;labelPosition=right;pointerEvents=1;rotation=-180;strokeColor=#001DBC;" vertex="1" parent="1">
          <mxGeometry x="663" y="970" width="14" height="60" as="geometry" />
        </mxCell>
        <mxCell id="_cdkrZVvoebnsra8TFej-20" value="" style="edgeStyle=segmentEdgeStyle;endArrow=oval;html=1;curved=0;rounded=0;endSize=6;startSize=6;strokeColor=#663300;align=center;verticalAlign=middle;fontFamily=Helvetica;fontSize=11;fontColor=default;labelBackgroundColor=default;startArrow=oval;startFill=0;endFill=0;sourcePerimeterSpacing=2;targetPerimeterSpacing=6;fillColor=#0050ef;" edge="1" parent="1">
          <mxGeometry width="50" height="50" relative="1" as="geometry">
            <mxPoint x="250" y="920" as="sourcePoint" />
            <mxPoint x="320" y="951" as="targetPoint" />
            <Array as="points">
              <mxPoint x="280" y="920" />
              <mxPoint x="280" y="951" />
            </Array>
          </mxGeometry>
        </mxCell>
        <mxCell id="_cdkrZVvoebnsra8TFej-21" value="" style="edgeStyle=segmentEdgeStyle;endArrow=oval;html=1;curved=0;rounded=0;endSize=6;startSize=6;strokeColor=#663300;align=center;verticalAlign=middle;fontFamily=Helvetica;fontSize=11;fontColor=default;labelBackgroundColor=default;startArrow=oval;startFill=0;endFill=0;sourcePerimeterSpacing=2;targetPerimeterSpacing=6;fillColor=#0050ef;" edge="1" parent="1">
          <mxGeometry width="50" height="50" relative="1" as="geometry">
            <mxPoint x="250" y="920" as="sourcePoint" />
            <mxPoint x="320.5" y="985.5" as="targetPoint" />
            <Array as="points">
              <mxPoint x="280" y="920" />
              <mxPoint x="280" y="985" />
            </Array>
          </mxGeometry>
        </mxCell>
        <mxCell id="_cdkrZVvoebnsra8TFej-24" value="" style="edgeStyle=segmentEdgeStyle;endArrow=oval;html=1;curved=0;rounded=0;endSize=6;startSize=6;strokeColor=#663300;align=center;verticalAlign=middle;fontFamily=Helvetica;fontSize=11;fontColor=default;labelBackgroundColor=default;startArrow=oval;startFill=0;endFill=0;sourcePerimeterSpacing=2;targetPerimeterSpacing=6;fillColor=#0050ef;" edge="1" parent="1">
          <mxGeometry width="50" height="50" relative="1" as="geometry">
            <mxPoint x="250" y="920" as="sourcePoint" />
            <mxPoint x="320" y="1016" as="targetPoint" />
            <Array as="points">
              <mxPoint x="250" y="920" />
              <mxPoint x="280" y="920" />
              <mxPoint x="280" y="1016" />
            </Array>
          </mxGeometry>
        </mxCell>
      </root>
    </mxGraphModel>
  </diagram>
  <diagram id="IZk9xpIdqHmYDW45sQse" name="GTFS-import">
    <mxGraphModel grid="1" page="1" gridSize="10" guides="1" tooltips="1" connect="1" arrows="1" fold="1" pageScale="1" pageWidth="827" pageHeight="1169" math="0" shadow="0">
      <root>
        <mxCell id="0" />
        <mxCell id="1" parent="0" />
        <mxCell id="KJz2MSeQ5Qc88WHrOsVk-5" value="&lt;b&gt;&lt;font style=&quot;font-size: 19px;&quot;&gt;AequilibraE project&lt;/font&gt;&lt;/b&gt;" style="rounded=1;whiteSpace=wrap;html=1;strokeColor=#1A1A1A;strokeWidth=1.2;fillColor=none;spacing=0;" vertex="1" parent="1">
          <mxGeometry x="352" y="320" width="136" height="50" as="geometry" />
        </mxCell>
        <mxCell id="KJz2MSeQ5Qc88WHrOsVk-6" value="" style="endArrow=blockThin;html=1;rounded=0;strokeColor=#CC0000;fontSize=19;entryX=0;entryY=0.75;entryDx=0;entryDy=0;edgeStyle=orthogonalEdgeStyle;endFill=1;endSize=9;dashed=1;" edge="1" parent="1" target="KJz2MSeQ5Qc88WHrOsVk-5">
          <mxGeometry width="50" height="50" relative="1" as="geometry">
            <mxPoint x="242" y="190" as="sourcePoint" />
            <mxPoint x="330" y="320" as="targetPoint" />
            <Array as="points">
              <mxPoint x="242" y="270" />
              <mxPoint x="242" y="357" />
            </Array>
          </mxGeometry>
        </mxCell>
        <mxCell id="KJz2MSeQ5Qc88WHrOsVk-7" value="" style="endArrow=blockThin;html=1;rounded=0;strokeColor=#CC0000;fontSize=19;entryX=0;entryY=0.25;entryDx=0;entryDy=0;edgeStyle=orthogonalEdgeStyle;endFill=1;endSize=9;dashed=1;" edge="1" parent="1" target="KJz2MSeQ5Qc88WHrOsVk-5">
          <mxGeometry width="50" height="50" relative="1" as="geometry">
            <mxPoint x="288" y="190" as="sourcePoint" />
            <mxPoint x="625.97" y="474.9999999999999" as="targetPoint" />
            <Array as="points">
              <mxPoint x="280" y="190" />
              <mxPoint x="280" y="333" />
            </Array>
          </mxGeometry>
        </mxCell>
        <mxCell id="uP30ST0rFuiM2-Vb2FsG-1" style="edgeStyle=orthogonalEdgeStyle;rounded=0;orthogonalLoop=1;jettySize=auto;html=1;endArrow=oval;endFill=0;startArrow=oval;startFill=0;endSize=6;targetPerimeterSpacing=6;sourcePerimeterSpacing=2;startSize=6;fillColor=#0050ef;strokeColor=#663300;entryX=0.5;entryY=0;entryDx=0;entryDy=0;" edge="1" parent="1" target="uP30ST0rFuiM2-Vb2FsG-6">
          <mxGeometry relative="1" as="geometry">
            <mxPoint x="420" y="80" as="sourcePoint" />
            <Array as="points">
              <mxPoint x="420" y="100" />
              <mxPoint x="575" y="100" />
            </Array>
            <mxPoint x="520" y="120" as="targetPoint" />
          </mxGeometry>
        </mxCell>
        <mxCell id="uP30ST0rFuiM2-Vb2FsG-2" style="edgeStyle=orthogonalEdgeStyle;rounded=0;orthogonalLoop=1;jettySize=auto;html=1;endArrow=oval;endFill=0;startArrow=oval;startFill=0;endSize=6;targetPerimeterSpacing=6;sourcePerimeterSpacing=2;startSize=6;fillColor=#0050ef;strokeColor=#663300;entryX=0.5;entryY=0;entryDx=0;entryDy=0;" edge="1" parent="1" target="uP30ST0rFuiM2-Vb2FsG-3">
          <mxGeometry relative="1" as="geometry">
            <mxPoint x="420" y="80" as="sourcePoint" />
            <Array as="points">
              <mxPoint x="420" y="100" />
              <mxPoint x="265" y="100" />
            </Array>
            <mxPoint x="320" y="120" as="targetPoint" />
          </mxGeometry>
        </mxCell>
        <mxCell id="KJz2MSeQ5Qc88WHrOsVk-1" value="&lt;b&gt;&lt;font style=&quot;font-size: 19px;&quot;&gt;GTFS&lt;/font&gt;&lt;/b&gt;" style="rounded=1;whiteSpace=wrap;html=1;strokeColor=#1A1A1A;strokeWidth=1.2;fillColor=default;spacing=0;" vertex="1" parent="1">
          <mxGeometry x="375" y="40" width="90" height="40" as="geometry" />
        </mxCell>
        <mxCell id="uP30ST0rFuiM2-Vb2FsG-5" style="edgeStyle=orthogonalEdgeStyle;rounded=0;orthogonalLoop=1;jettySize=auto;html=1;endArrow=oval;endFill=0;startArrow=none;startFill=0;endSize=6;targetPerimeterSpacing=6;sourcePerimeterSpacing=2;startSize=6;fillColor=#0050ef;strokeColor=#663300;entryX=0.5;entryY=0;entryDx=0;entryDy=0;" edge="1" parent="1" target="uP30ST0rFuiM2-Vb2FsG-4">
          <mxGeometry relative="1" as="geometry">
            <mxPoint x="420" y="100" as="sourcePoint" />
            <Array as="points">
              <mxPoint x="420" y="110" />
              <mxPoint x="420" y="110" />
            </Array>
            <mxPoint x="275" y="129.9999999999999" as="targetPoint" />
          </mxGeometry>
        </mxCell>
        <mxCell id="uP30ST0rFuiM2-Vb2FsG-4" value="&lt;b&gt;&lt;font style=&quot;font-size: 15px;&quot;&gt;Stops&lt;/font&gt;&lt;/b&gt;" style="rounded=1;whiteSpace=wrap;html=1;strokeColor=#1A1A1A;strokeWidth=1.2;fillColor=default;spacing=0;" vertex="1" parent="1">
          <mxGeometry x="375" y="120" width="90" height="30" as="geometry" />
        </mxCell>
        <mxCell id="uP30ST0rFuiM2-Vb2FsG-6" value="&lt;b&gt;&lt;font style=&quot;font-size: 15px;&quot;&gt;Timetable&lt;/font&gt;&lt;/b&gt;" style="rounded=1;whiteSpace=wrap;html=1;strokeColor=#1A1A1A;strokeWidth=1.2;fillColor=default;spacing=0;" vertex="1" parent="1">
          <mxGeometry x="530" y="120" width="90" height="30" as="geometry" />
        </mxCell>
        <mxCell id="uP30ST0rFuiM2-Vb2FsG-7" value="" style="endArrow=blockThin;html=1;rounded=0;strokeColor=#CC0000;fontSize=19;exitX=0.5;exitY=1;exitDx=0;exitDy=0;entryX=0.5;entryY=0;entryDx=0;entryDy=0;edgeStyle=orthogonalEdgeStyle;endFill=1;endSize=9;dashed=1;" edge="1" parent="1" source="uP30ST0rFuiM2-Vb2FsG-4" target="KJz2MSeQ5Qc88WHrOsVk-5">
          <mxGeometry width="50" height="50" relative="1" as="geometry">
            <mxPoint x="414.02" y="159.9999999999999" as="sourcePoint" />
            <mxPoint x="478.52" y="342.4999999999999" as="targetPoint" />
            <Array as="points">
              <mxPoint x="420" y="280" />
              <mxPoint x="420" y="280" />
            </Array>
          </mxGeometry>
        </mxCell>
        <mxCell id="uP30ST0rFuiM2-Vb2FsG-8" value="&lt;font style=&quot;font-size: 12px;&quot;&gt;&lt;b&gt;Map matching (per line)&lt;/b&gt;&lt;br&gt;YES&lt;b&gt;&amp;nbsp; &amp;nbsp; &amp;nbsp; &amp;nbsp; &lt;/b&gt;NO&lt;br&gt;&lt;/font&gt;" style="rounded=1;whiteSpace=wrap;html=1;strokeColor=#1A1A1A;strokeWidth=1.2;fillColor=default;spacing=0;dashed=1;" vertex="1" parent="1">
          <mxGeometry x="220" y="150" width="90" height="50" as="geometry" />
        </mxCell>
        <mxCell id="uP30ST0rFuiM2-Vb2FsG-3" value="&lt;b&gt;&lt;font style=&quot;font-size: 15px;&quot;&gt;Lines path&lt;/font&gt;&lt;/b&gt;" style="rounded=1;whiteSpace=wrap;html=1;strokeColor=#1A1A1A;strokeWidth=1.2;fillColor=default;spacing=0;" vertex="1" parent="1">
          <mxGeometry x="220" y="120" width="90" height="30" as="geometry" />
        </mxCell>
        <mxCell id="vm2Oic-krbFgHusjDYmc-1" value="" style="endArrow=blockThin;html=1;rounded=0;strokeColor=#CC0000;fontSize=19;exitX=0.5;exitY=1;exitDx=0;exitDy=0;entryX=1;entryY=0.5;entryDx=0;entryDy=0;edgeStyle=orthogonalEdgeStyle;endFill=1;endSize=9;dashed=1;" edge="1" parent="1" source="uP30ST0rFuiM2-Vb2FsG-6" target="KJz2MSeQ5Qc88WHrOsVk-5">
          <mxGeometry width="50" height="50" relative="1" as="geometry">
            <mxPoint x="560" y="199.9999999999999" as="sourcePoint" />
            <mxPoint x="559.9999999999998" y="370" as="targetPoint" />
            <Array as="points">
              <mxPoint x="575" y="345" />
            </Array>
          </mxGeometry>
        </mxCell>
        <mxCell id="Se3FspTX3q6nhctCjJPI-1" value="Create new links" style="rounded=0;whiteSpace=wrap;html=1;dashed=1;strokeColor=none;strokeWidth=1.2;fontSize=12;fillColor=default;fillOpacity=70;align=left;" vertex="1" parent="1">
          <mxGeometry x="287" y="240" width="65" height="40" as="geometry" />
        </mxCell>
        <mxCell id="pzN8PF_WitmVLXsneo0f-1" value="Find best route based on pre-existing links" style="rounded=0;whiteSpace=wrap;html=1;dashed=1;strokeColor=none;strokeWidth=1.2;fontSize=12;fillColor=default;fillOpacity=70;align=right;" vertex="1" parent="1">
          <mxGeometry x="150" y="240" width="90" height="40" as="geometry" />
        </mxCell>
        <mxCell id="ikYbTur-f8w9Tl64AgPg-1" value="&lt;font style=&quot;font-size: 10px;&quot;&gt;Create new nodes for stops&lt;/font&gt;" style="rounded=0;whiteSpace=wrap;html=1;dashed=1;strokeColor=none;strokeWidth=1.2;fontSize=12;fillColor=default;fillOpacity=60;align=center;" vertex="1" parent="1">
          <mxGeometry x="381.25" y="200" width="77.5" height="40" as="geometry" />
        </mxCell>
        <mxCell id="vyr4GRHJcX49w0kBW9yE-1" value="" style="endArrow=blockThin;html=1;rounded=0;strokeColor=#B3B3B3;fontSize=19;exitX=0.5;exitY=1;exitDx=0;exitDy=0;edgeStyle=orthogonalEdgeStyle;endFill=1;endSize=9;dashed=1;startArrow=none;" edge="1" parent="1" source="vyr4GRHJcX49w0kBW9yE-3">
          <mxGeometry width="50" height="50" relative="1" as="geometry">
            <mxPoint x="419.5" y="370" as="sourcePoint" />
            <mxPoint x="420" y="500" as="targetPoint" />
            <Array as="points">
              <mxPoint x="419.5" y="500" />
              <mxPoint x="419.5" y="500" />
            </Array>
          </mxGeometry>
        </mxCell>
        <mxCell id="vyr4GRHJcX49w0kBW9yE-2" value="&lt;b&gt;&lt;font color=&quot;#999999&quot; style=&quot;font-size: 19px;&quot;&gt;GTFS&lt;/font&gt;&lt;/b&gt;" style="rounded=1;whiteSpace=wrap;html=1;strokeColor=#999999;strokeWidth=1.2;fillColor=default;spacing=0;" vertex="1" parent="1">
          <mxGeometry x="375" y="500" width="90" height="40" as="geometry" />
        </mxCell>
        <mxCell id="vyr4GRHJcX49w0kBW9yE-3" value="&lt;font color=&quot;#999999&quot;&gt;Later but to keep in mind to keep necessary data&lt;/font&gt;" style="rounded=0;whiteSpace=wrap;html=1;dashed=1;strokeColor=none;strokeWidth=1.2;fontSize=12;fillColor=default;fillOpacity=70;align=center;" vertex="1" parent="1">
          <mxGeometry x="370" y="410" width="100" height="40" as="geometry" />
        </mxCell>
        <mxCell id="vyr4GRHJcX49w0kBW9yE-4" value="" style="endArrow=none;html=1;rounded=0;strokeColor=#B3B3B3;fontSize=19;exitX=0.5;exitY=1;exitDx=0;exitDy=0;edgeStyle=orthogonalEdgeStyle;endFill=1;endSize=9;dashed=1;" edge="1" parent="1" target="vyr4GRHJcX49w0kBW9yE-3">
          <mxGeometry width="50" height="50" relative="1" as="geometry">
            <mxPoint x="420" y="370" as="sourcePoint" />
            <mxPoint x="420" y="500" as="targetPoint" />
            <Array as="points" />
          </mxGeometry>
        </mxCell>
      </root>
    </mxGraphModel>
  </diagram>
  <diagram id="XJoxVfun17cCT9Qti_BA" name="Traffic-Assignment">
    <mxGraphModel dx="1422" dy="865" grid="1" gridSize="10" guides="1" tooltips="1" connect="1" arrows="1" fold="1" page="1" pageScale="1" pageWidth="827" pageHeight="1169" math="0" shadow="0">
      <root>
        <mxCell id="0" />
        <mxCell id="1" parent="0" />
      </root>
    </mxGraphModel>
  </diagram>
  <diagram id="K_WikLT2GyUFNNivXHJX" name="PT-Assignment">
    <mxGraphModel dx="1422" dy="865" grid="1" gridSize="10" guides="1" tooltips="1" connect="1" arrows="1" fold="1" page="1" pageScale="1" pageWidth="827" pageHeight="1169" math="0" shadow="0">
      <root>
        <mxCell id="0" />
        <mxCell id="1" parent="0" />
      </root>
    </mxGraphModel>
  </diagram>
</mxfile>
